<svg xmlns="http://www.w3.org/2000/svg" viewBox="0 0 196.05 110.53"><defs><style>.a{fill:#c8c8c8;}.b{fill:#f5f5f5;}.c{fill:#ebebeb;}</style></defs><path class="a" d="M192.45,60.16c-.79-11.53-11.39-20.65-24.36-20.65a26.59,26.59,0,0,0-3.36.21,28,28,0,0,0,.24-3.56c0-16.37-14.47-29.63-32.33-29.63-16.48,0-30.08,11.31-32.07,25.93A76.41,76.41,0,0,0,78.05,29.2c-23.56,0-43,9.8-45.6,22.42h-.3A23.32,23.32,0,1,0,46,93.74c2.92,10.45,18.26,18.42,36.76,18.42a55.4,55.4,0,0,0,22.82-4.62c8.68,4.49,19.8,7.2,31.93,7.2,24.83,0,45.45-11.34,49.49-26.23a7.84,7.84,0,0,0,4.69,1.62c5.73,0,10.39-6.72,10.39-15C202.11,67.19,197.84,60.7,192.45,60.16Z" transform="translate(-6.05 -4.21)"/><path class="b" d="M189.85,57.84c-.79-11.52-11.39-20.65-24.36-20.65a26.59,26.59,0,0,0-3.36.21,26.17,26.17,0,0,0,.25-3.56c0-16.36-14.48-29.63-32.33-29.63C113.56,4.21,100,15.52,98,30.14a76.48,76.48,0,0,0-22.53-3.26c-23.56,0-43,9.8-45.59,22.42h-.31A23.32,23.32,0,1,0,43.43,91.42c2.92,10.45,18.26,18.42,36.76,18.42A55.48,55.48,0,0,0,103,105.22c8.67,4.5,19.8,7.2,31.92,7.2,24.84,0,45.46-11.34,49.49-26.23a7.84,7.84,0,0,0,4.69,1.62c5.74,0,10.39-6.72,10.39-15C199.51,64.87,195.25,58.38,189.85,57.84Z" transform="translate(-6.05 -4.21)"/><path class="c" d="M199.23,69.32c-1.09,6.62-5.2,11.54-10.11,11.54-1.69,0-4-2.45-5.45-3.48,2.6,13.4-23.89,28.08-48.73,28.08-12.12,0-25.28-1-32.16-10.82-4.54,6.44-6.68,9.14-22.59,8.25C61.88,101.85,46,94.13,46,81.76c-3.89,2.83-8.92,8.86-16.49,7.21-12-2.61-22.7-6.57-23.24-19.83A23.51,23.51,0,0,0,43.43,91.42c2.92,10.45,18.26,18.42,36.76,18.42A55.48,55.48,0,0,0,103,105.22c8.67,4.5,19.8,7.2,31.92,7.2,24.84,0,45.46-11.34,49.49-26.23a7.84,7.84,0,0,0,4.69,1.62c5.74,0,10.39-6.72,10.39-15A22,22,0,0,0,199.23,69.32Z" transform="translate(-6.05 -4.21)"/></svg>